<svg xmlns="http://www.w3.org/2000/svg" viewBox="0 0 800 640" role="img" aria-labelledby="title desc">
  <title id="title">Google Classroom workspace illustration</title>
  <desc id="desc">An abstract classroom workspace showing folders, resources and a lesson board.</desc>
  <defs>
    <linearGradient id="classroom-bg" x1="8%" y1="4%" x2="92%" y2="100%">
      <stop offset="0%" stop-color="#071422" />
      <stop offset="50%" stop-color="#10243b" />
      <stop offset="100%" stop-color="#16385c" />
    </linearGradient>
    <linearGradient id="classroom-accent" x1="0%" y1="0%" x2="100%" y2="100%">
      <stop offset="0%" stop-color="#9fd3ff" />
      <stop offset="55%" stop-color="#4da2ff" />
      <stop offset="100%" stop-color="#1f74ee" />
    </linearGradient>
  </defs>
  <rect width="800" height="640" rx="42" fill="url(#classroom-bg)" />
  <rect x="104" y="128" width="592" height="392" rx="34" fill="rgba(255,255,255,0.1)" stroke="rgba(255,255,255,0.16)" />
  <rect x="142" y="170" width="516" height="56" rx="18" fill="rgba(255,255,255,0.08)" />
  <rect x="166" y="192" width="128" height="12" rx="6" fill="#9fd3ff" />
  <rect x="318" y="192" width="164" height="12" rx="6" fill="#dcecff" opacity=".42" />
  <rect x="142" y="254" width="232" height="224" rx="24" fill="rgba(6,17,31,0.45)" stroke="rgba(255,255,255,0.08)" />
  <rect x="170" y="286" width="92" height="12" rx="6" fill="#9fd3ff" />
  <rect x="170" y="324" width="176" height="16" rx="8" fill="#dcecff" opacity=".22" />
  <rect x="170" y="355" width="152" height="12" rx="6" fill="#dcecff" opacity=".16" />
  <rect x="170" y="382" width="162" height="12" rx="6" fill="#dcecff" opacity=".16" />
  <rect x="404" y="254" width="254" height="122" rx="24" fill="rgba(255,255,255,0.1)" stroke="rgba(255,255,255,0.08)" />
  <rect x="432" y="284" width="86" height="70" rx="18" fill="url(#classroom-accent)" opacity=".9" />
  <rect x="536" y="284" width="92" height="12" rx="6" fill="#dcecff" opacity=".76" />
  <rect x="536" y="311" width="74" height="12" rx="6" fill="#dcecff" opacity=".24" />
  <rect x="404" y="392" width="254" height="86" rx="24" fill="rgba(255,255,255,0.1)" stroke="rgba(255,255,255,0.08)" />
  <path d="M438 442c23-19 43-28 60-28 18 0 34 8 49 24 14-12 30-18 49-18 10 0 18 1 27 4" fill="none" stroke="url(#classroom-accent)" stroke-linecap="round" stroke-linejoin="round" stroke-width="8" />
</svg>
