<svg xmlns="http://www.w3.org/2000/svg" viewBox="0 0 800 640" role="img" aria-labelledby="title desc">
  <title id="title">Learning pathway illustration</title>
  <desc id="desc">A premium illustrated roadmap representing the FlyBridge lesson journey.</desc>
  <defs>
    <linearGradient id="path-bg" x1="8%" y1="4%" x2="92%" y2="100%">
      <stop offset="0%" stop-color="#071422" />
      <stop offset="50%" stop-color="#10243b" />
      <stop offset="100%" stop-color="#16385c" />
    </linearGradient>
    <linearGradient id="path-accent" x1="0%" y1="0%" x2="100%" y2="100%">
      <stop offset="0%" stop-color="#9fd3ff" />
      <stop offset="55%" stop-color="#4da2ff" />
      <stop offset="100%" stop-color="#1f74ee" />
    </linearGradient>
  </defs>
  <rect width="800" height="640" rx="42" fill="url(#path-bg)" />
  <path d="M156 480c60-11 111-61 132-114 20-51 47-95 96-116 37-16 82-16 122-36 47-23 87-66 122-129" fill="none" stroke="url(#path-accent)" stroke-linecap="round" stroke-linejoin="round" stroke-width="12" />
  <circle cx="156" cy="480" r="13" fill="#9fd3ff" />
  <circle cx="311" cy="311" r="13" fill="#9fd3ff" />
  <circle cx="506" cy="214" r="13" fill="#9fd3ff" />
  <circle cx="628" cy="85" r="13" fill="#9fd3ff" />
  <rect x="90" y="420" width="156" height="88" rx="22" fill="rgba(255,255,255,0.12)" stroke="rgba(255,255,255,0.14)" />
  <rect x="120" y="450" width="82" height="12" rx="6" fill="#ffffff" opacity=".92" />
  <rect x="292" y="252" width="176" height="92" rx="22" fill="rgba(255,255,255,0.12)" stroke="rgba(255,255,255,0.14)" />
  <rect x="322" y="286" width="96" height="12" rx="6" fill="#ffffff" opacity=".92" />
  <rect x="470" y="156" width="168" height="90" rx="22" fill="rgba(255,255,255,0.12)" stroke="rgba(255,255,255,0.14)" />
  <rect x="500" y="190" width="86" height="12" rx="6" fill="#ffffff" opacity=".92" />
  <rect x="556" y="52" width="142" height="78" rx="22" fill="rgba(255,255,255,0.12)" stroke="rgba(255,255,255,0.14)" />
  <rect x="582" y="82" width="90" height="12" rx="6" fill="#ffffff" opacity=".92" />
</svg>
