<svg xmlns="http://www.w3.org/2000/svg" viewBox="0 0 800 640" role="img" aria-labelledby="title desc">
  <title id="title">Progress dashboard illustration</title>
  <desc id="desc">A premium dashboard showing lesson reporting, targets and progress tracking.</desc>
  <defs>
    <linearGradient id="dashboard-bg" x1="8%" y1="0%" x2="100%" y2="100%">
      <stop offset="0%" stop-color="#071422" />
      <stop offset="48%" stop-color="#10243b" />
      <stop offset="100%" stop-color="#16385c" />
    </linearGradient>
    <linearGradient id="dashboard-accent" x1="0%" y1="0%" x2="100%" y2="100%">
      <stop offset="0%" stop-color="#a8d8ff" />
      <stop offset="50%" stop-color="#4da2ff" />
      <stop offset="100%" stop-color="#1c70e5" />
    </linearGradient>
  </defs>
  <rect width="800" height="640" rx="42" fill="url(#dashboard-bg)" />
  <circle cx="148" cy="122" r="110" fill="#4da2ff" opacity=".12" />
  <rect x="84" y="108" width="632" height="424" rx="32" fill="rgba(255,255,255,0.1)" stroke="rgba(255,255,255,0.18)" />
  <rect x="124" y="146" width="178" height="118" rx="24" fill="rgba(255,255,255,0.1)" stroke="rgba(255,255,255,0.1)" />
  <rect x="148" y="174" width="92" height="12" rx="6" fill="#9fd3ff" />
  <text x="148" y="228" fill="#ffffff" font-family="Plus Jakarta Sans, Inter, Arial, sans-serif" font-size="40" font-weight="800">7.8</text>
  <rect x="148" y="240" width="102" height="10" rx="5" fill="#dcecff" opacity=".32" />
  <rect x="326" y="146" width="350" height="118" rx="24" fill="rgba(6,17,31,0.46)" stroke="rgba(255,255,255,0.1)" />
  <path d="M358 232c35-36 70-54 104-54 31 0 61 16 92 48 22-20 48-30 78-30 14 0 27 2 40 6" fill="none" stroke="url(#dashboard-accent)" stroke-linecap="round" stroke-linejoin="round" stroke-width="10" />
  <circle cx="358" cy="232" r="8" fill="#a8d8ff" />
  <circle cx="554" cy="226" r="8" fill="#a8d8ff" />
  <circle cx="672" cy="202" r="8" fill="#a8d8ff" />
  <rect x="124" y="292" width="248" height="196" rx="24" fill="rgba(255,255,255,0.1)" stroke="rgba(255,255,255,0.1)" />
  <rect x="152" y="326" width="116" height="12" rx="6" fill="#9fd3ff" />
  <rect x="152" y="360" width="190" height="16" rx="8" fill="#dcecff" opacity=".22" />
  <rect x="152" y="392" width="168" height="12" rx="6" fill="#dcecff" opacity=".16" />
  <rect x="152" y="419" width="180" height="12" rx="6" fill="#dcecff" opacity=".16" />
  <rect x="152" y="446" width="126" height="12" rx="6" fill="#dcecff" opacity=".16" />
  <rect x="398" y="292" width="278" height="196" rx="24" fill="rgba(255,255,255,0.1)" stroke="rgba(255,255,255,0.1)" />
  <rect x="430" y="336" width="38" height="104" rx="14" fill="#4da2ff" />
  <rect x="484" y="368" width="38" height="72" rx="14" fill="#8fd1ff" opacity=".82" />
  <rect x="538" y="320" width="38" height="120" rx="14" fill="#dcecff" opacity=".86" />
  <rect x="592" y="346" width="38" height="94" rx="14" fill="#4da2ff" opacity=".58" />
</svg>
