<svg xmlns="http://www.w3.org/2000/svg" viewBox="0 0 800 640" role="img" aria-labelledby="title desc">
  <title id="title">Parent report illustration</title>
  <desc id="desc">A premium stack of report cards representing lesson summaries and targets.</desc>
  <defs>
    <linearGradient id="report-bg" x1="8%" y1="4%" x2="92%" y2="100%">
      <stop offset="0%" stop-color="#071422" />
      <stop offset="50%" stop-color="#10243b" />
      <stop offset="100%" stop-color="#16385c" />
    </linearGradient>
    <linearGradient id="report-accent" x1="0%" y1="0%" x2="100%" y2="100%">
      <stop offset="0%" stop-color="#9fd3ff" />
      <stop offset="55%" stop-color="#4da2ff" />
      <stop offset="100%" stop-color="#1f74ee" />
    </linearGradient>
  </defs>
  <rect width="800" height="640" rx="42" fill="url(#report-bg)" />
  <rect x="184" y="148" width="348" height="380" rx="28" fill="rgba(255,255,255,0.08)" stroke="rgba(255,255,255,0.12)" />
  <rect x="214" y="118" width="348" height="380" rx="28" fill="rgba(255,255,255,0.1)" stroke="rgba(255,255,255,0.14)" />
  <rect x="244" y="88" width="348" height="380" rx="28" fill="rgba(255,255,255,0.13)" stroke="rgba(255,255,255,0.18)" />
  <rect x="286" y="134" width="132" height="14" rx="7" fill="#9fd3ff" />
  <rect x="286" y="172" width="212" height="16" rx="8" fill="#dcecff" opacity=".22" />
  <rect x="286" y="209" width="244" height="12" rx="6" fill="#dcecff" opacity=".16" />
  <rect x="286" y="236" width="184" height="12" rx="6" fill="#dcecff" opacity=".16" />
  <rect x="286" y="278" width="264" height="138" rx="22" fill="rgba(6,17,31,0.48)" stroke="rgba(255,255,255,0.1)" />
  <path d="M318 374c31-27 61-40 90-40s55 13 80 39 54 39 87 39" fill="none" stroke="url(#report-accent)" stroke-linecap="round" stroke-linejoin="round" stroke-width="10" />
  <circle cx="318" cy="374" r="8" fill="#9fd3ff" />
  <circle cx="488" cy="373" r="8" fill="#9fd3ff" />
  <circle cx="575" cy="412" r="8" fill="#9fd3ff" />
</svg>
